<svg xmlns="http://www.w3.org/2000/svg" fill="none" viewBox="0 0 512 512">
    <circle cx="256" cy="256" r="240" fill="#4f378b"/>
    <g fill="#eaddff">
        <rect width="45" height="45" x="336" y="166" rx="4" ry="4"/>
        <circle cx="358.5" cy="323.5" r="22.5"/>
        <path d="M370.7 238.5c1.4.1 2.1.1 2.7.4.8.4 1.5 1 1.8 1.8.2.6.3 1.3.4 2.7l.2 3.2c0 .6.1.8.1 1.1.1.4.2.8.5 1.1.1.2.3.4.7.9l2.1 2.4c.9 1.1 1.4 1.6 1.6 2.2.3.8.3 1.8 0 2.6-.2.6-.7 1.1-1.6 2.2l-2.1 2.4c-.4.4-.6.6-.7.9-.2.3-.4.7-.5 1.1-.1.3-.1.6-.1 1.1l-.2 3.2c-.1 1.4-.1 2.1-.4 2.7-.4.8-1 1.5-1.8 1.8-.6.2-1.3.3-2.7.4l-3.2.2c-.6 0-.8.1-1.1.1-.4.1-.8.2-1.1.5-.2.1-.4.3-.9.7l-2.4 2.1c-1.1.9-1.6 1.4-2.2 1.6-.8.3-1.8.3-2.6 0-.6-.2-1.1-.7-2.2-1.6l-2.4-2.1c-.4-.4-.6-.6-.9-.7-.3-.2-.7-.4-1.1-.5-.3-.1-.6-.1-1.1-.1l-3.2-.2c-1.4-.1-2.1-.1-2.7-.4-.8-.4-1.5-1-1.8-1.8-.2-.6-.3-1.3-.4-2.7l-.2-3.2c0-.6-.1-.8-.1-1.1-.1-.4-.2-.8-.5-1.1-.1-.2-.3-.4-.7-.9l-2.1-2.4c-.9-1.1-1.4-1.6-1.6-2.2-.3-.8-.3-1.8 0-2.6.2-.6.7-1.1 1.6-2.2l2.1-2.4c.4-.4.6-.6.7-.9.2-.3.4-.7.5-1.1.1-.3.1-.6.1-1.1l.2-3.2c.1-1.4.1-2.1.4-2.7.4-.8 1-1.5 1.8-1.8.6-.2 1.3-.3 2.7-.4l3.2-.2c.6 0 .8-.1 1.1-.1.4-.1.8-.2 1.1-.5.2-.1.4-.3.9-.7l2.4-2.1c1.1-.9 1.6-1.4 2.2-1.6.8-.3 1.8-.3 2.6 0 .6.2 1.1.7 2.2 1.6l2.4 2.1c.4.4.6.6.9.7.3.2.7.4 1.1.5.3.1.6.1 1.1.1z"/>
    </g>
    <g stroke="#eaddff">
        <rect width="200" height="200" x="116" y="156" stroke-width="20" rx="12" ry="12"/>
        <path stroke-width="16" d="M156 237c0-11 10.3-20 23.1-20s23.1 9 23.1 20v37.1c0 11-10.3 20-23.1 20s-23.1-9-23.1-20z"/>
        <path stroke-linecap="round" stroke-width="16" d="m231 247.2 40 43.8m0-43.8L231 291"/>
    </g>
</svg>
